<?xml version="1.0" standalone="no"?>
<!DOCTYPE svg PUBLIC "-//W3C//DTD SVG 20010904//EN"
 "http://www.w3.org/TR/2001/REC-SVG-20010904/DTD/svg10.dtd">
<svg version="1.0" xmlns="http://www.w3.org/2000/svg"
 width="700.000000pt" height="700.000000pt" viewBox="0 0 700.000000 700.000000"
 preserveAspectRatio="xMidYMid meet">
<metadata>
Created by potrace 1.11, written by Peter Selinger 2001-2013
</metadata>
<g transform="translate(0.000000,700.000000) scale(0.100000,-0.100000)"
fill="#000000" stroke="none">
<path d="M5232 6615 c-116 -32 -220 -115 -327 -260 -29 -38 -58 -81 -65 -95
-7 -14 -16 -27 -20 -30 -7 -5 -190 -327 -190 -334 0 -2 -17 -35 -38 -73 -22
-37 -65 -117 -97 -178 -88 -167 -154 -294 -190 -360 -47 -88 -208 -398 -356
-687 -137 -267 -798 -1591 -917 -1838 -38 -80 -125 -257 -192 -395 -67 -137
-157 -323 -200 -411 -224 -465 -537 -880 -824 -1096 -88 -66 -126 -87 -201
-113 -74 -25 -92 -28 -175 -28 -159 1 -271 93 -313 256 -19 72 -20 216 -2 317
20 117 22 127 50 265 14 72 28 144 31 160 5 28 50 236 60 280 3 11 7 31 10 45
10 53 65 267 80 313 14 41 47 79 243 275 437 437 721 796 1041 1315 l87 142
313 5 312 5 23 27 c33 39 43 112 20 154 -9 18 -25 34 -34 36 -9 3 -125 4 -259
4 -137 -1 -242 3 -242 8 0 5 20 45 44 90 47 87 300 591 334 666 11 25 38 83
60 130 21 47 56 128 76 180 21 52 41 104 46 115 24 53 90 293 105 380 60 351
-25 608 -221 670 -249 78 -618 -145 -911 -553 -54 -76 -172 -265 -230 -372
-11 -19 -47 -85 -81 -147 -128 -232 -178 -327 -338 -653 -207 -418 -234 -475
-234 -488 0 -6 -5 -14 -12 -18 -7 -4 -155 -8 -329 -8 -344 -1 -335 0 -366 -59
-22 -43 -13 -125 17 -149 20 -16 47 -18 297 -18 216 0 274 -3 270 -12 -3 -7
-37 -96 -77 -198 -40 -102 -78 -198 -85 -215 -7 -16 -27 -68 -44 -115 -16 -47
-44 -123 -61 -170 -34 -93 -203 -597 -244 -725 -66 -210 -200 -717 -220 -830
-3 -16 -8 -39 -10 -50 -12 -60 -36 -196 -41 -235 -3 -25 -9 -58 -12 -75 -12
-68 -10 -298 4 -382 49 -308 214 -518 476 -606 187 -63 413 -48 621 41 114 49
245 139 334 230 24 24 45 42 46 41 2 -2 -41 -94 -95 -204 -54 -110 -98 -203
-98 -208 -1 -4 11 -1 27 7 45 23 121 35 263 41 364 16 353 9 497 287 327 628
750 1255 1096 1626 200 215 454 444 626 564 185 130 335 182 409 144 40 -21
51 -44 51 -104 0 -95 -33 -168 -199 -444 -208 -345 -323 -559 -404 -753 -38
-92 -100 -290 -114 -365 -2 -14 -8 -44 -14 -67 -5 -24 -12 -69 -15 -100 -36
-338 48 -574 251 -707 151 -100 385 -133 570 -82 58 17 162 62 223 99 224 134
431 355 654 697 152 233 234 380 413 740 195 391 205 415 199 484 -4 48 -19
66 -55 66 -55 0 -92 -50 -210 -285 -158 -313 -225 -437 -368 -673 -47 -79 -90
-151 -96 -160 -36 -62 -178 -264 -249 -356 -295 -379 -559 -518 -690 -364 -44
51 -60 112 -60 223 -1 304 102 613 459 1380 45 97 296 600 335 670 15 28 53
100 85 160 78 149 169 317 277 513 50 90 87 166 84 170 -13 12 -151 11 -221
-3 -251 -49 -641 -236 -1050 -504 -125 -82 -295 -199 -305 -210 -3 -3 -39 -31
-80 -63 -41 -31 -86 -66 -100 -78 -14 -12 -36 -31 -50 -43 -14 -12 -55 -47
-90 -77 -131 -110 -399 -388 -561 -580 -26 -30 -73 -86 -105 -125 -33 -38 -72
-87 -88 -108 -15 -21 -30 -36 -33 -34 -4 4 462 936 639 1277 123 236 201 385
238 455 20 39 65 124 100 190 34 66 75 143 90 170 15 28 45 84 67 125 90 168
300 555 383 705 24 42 260 458 335 590 252 441 541 885 687 1056 l47 56 -82 2
c-45 0 -128 9 -184 20 -125 23 -260 25 -331 6z m-1975 -443 c24 -15 45 -85 44
-146 -3 -294 -116 -618 -450 -1284 -107 -216 -205 -398 -222 -416 -9 -10 -484
-15 -499 -6 -5 3 -3 19 5 35 8 17 66 152 131 300 132 306 135 313 234 525 147
318 258 513 399 700 167 223 298 330 358 292z m-767 -2086 c0 -16 -265 -418
-383 -581 -155 -213 -408 -525 -512 -631 -16 -17 -46 -49 -66 -71 -36 -40 -66
-65 -58 -47 14 28 38 85 139 344 62 157 119 299 126 315 7 17 24 59 39 95 14
36 30 74 35 85 4 11 52 127 106 258 l98 237 238 0 c131 0 238 -2 238 -4z"/>
</g>
</svg>
